<?xml version="1.0" encoding="utf-8"?>
<!-- Generator: Adobe Illustrator 27.5.0, SVG Export Plug-In . SVG Version: 6.00 Build 0)  -->
<svg version="1.1" id="Capa_1" xmlns="http://www.w3.org/2000/svg" xmlns:xlink="http://www.w3.org/1999/xlink" x="0px" y="0px"
	 viewBox="0 0 2122 2122" style="enable-background:new 0 0 2122 2122;" xml:space="preserve">
<path style="fill:#F18500;" d="M1390.84,1180.101c64.148,38.399,148.967,73.605,236.775,83.535
	c26.966-6.933,50.637-14.375,70.568-22.241C1631.754,1215.19,1523.731,1193.677,1390.84,1180.101z"/>
<path style="fill:#874913;" d="M1698.236,1241.375c2.871-1.134,5.665-2.276,8.38-3.427l0.117-0.05
	c0.633-0.269,1.264-0.538,1.889-0.808l0.148-0.064c2.673-1.156,5.266-2.32,7.777-3.492l0.075-0.036
	c0.596-0.278,1.186-0.557,1.774-0.836l0.13-0.062c0.597-0.284,1.19-0.569,1.777-0.854l0.029-0.014
	c1.837-0.892,3.626-1.79,5.369-2.691l0.032-0.017c0.555-0.287,1.104-0.575,1.65-0.863l0.127-0.067
	c0.541-0.286,1.078-0.573,1.609-0.859l0.04-0.022c1.258-0.681,2.491-1.364,3.695-2.048c0.401-0.229,0.8-0.457,1.195-0.686
	l0.025-0.015c0.498-0.288,0.99-0.576,1.477-0.865l0.159-0.094c0.461-0.273,0.916-0.547,1.369-0.821l0.144-0.087
	c1.493-0.908,2.941-1.82,4.34-2.736l0.103-0.068l1.268-0.842l0.147-0.1l1.219-0.831l0.126-0.087
	c1.337-0.924,2.626-1.853,3.865-2.784l0.06-0.045l1.097-0.838l0.226-0.175l0.99-0.78l0.154-0.122l1.056-0.857
	c-55.5-45.703-228.09-82.626-452.901-98.175c16.38,13.362,33.167,26.24,50.312,38.645c12.558,9.086,26.486,18.282,41.554,27.302
	c132.89,13.575,240.913,35.088,307.343,61.294L1698.236,1241.375z"/>
<path style="fill:#5E2D09;" d="M1751.885,1212.338c12.38-10.198,18.934-20.833,18.934-31.765c0-6.066-2.019-12.04-5.929-17.898
	l-0.021-0.031c-0.619-0.924-1.284-1.846-1.995-2.765l-0.124-0.161l-0.4-0.503l-0.24-0.298l-0.37-0.451l-0.31-0.371l-0.327-0.385
	l-0.397-0.456l-0.288-0.328l-0.596-0.66l-0.107-0.117l-0.761-0.813l-0.105-0.109l-0.694-0.714l-0.13-0.132l-0.686-0.684l-0.153-0.15
	l-0.734-0.708l-0.091-0.087c-44.967-42.623-191.196-78.08-387.737-96.476l-0.132-0.012c-2.553-0.239-5.116-0.475-7.686-0.708
	s-5.147-0.463-7.734-0.691l-0.414-0.036c-1.177-0.103-2.354-0.206-3.535-0.308l-0.267-0.023c-1.2-0.104-2.401-0.206-3.604-0.309
	l-0.332-0.029c-3.862-0.328-7.741-0.649-11.638-0.964l-0.655-0.053c-0.999-0.081-1.999-0.161-3-0.24
	c-0.453-0.036-0.906-0.072-1.362-0.108c-0.774-0.061-1.549-0.122-2.325-0.183c-0.466-0.036-0.932-0.073-1.398-0.109
	c-0.943-0.073-1.887-0.146-2.831-0.219l-0.884-0.068c-0.911-0.07-1.825-0.139-2.737-0.208c-0.576-0.043-1.152-0.087-1.729-0.13
	c-1.082-0.081-2.165-0.162-3.251-0.242l-0.777-0.057c-0.971-0.071-1.942-0.143-2.916-0.213c-0.494-0.036-0.991-0.072-1.487-0.108
	c-0.803-0.058-1.606-0.116-2.411-0.173c-0.453-0.032-0.905-0.064-1.358-0.096c-0.794-0.056-1.589-0.112-2.384-0.168
	c-0.57-0.04-1.14-0.08-1.71-0.12c-0.758-0.053-1.515-0.105-2.273-0.157c-0.455-0.031-0.908-0.062-1.362-0.094
	c-1.075-0.073-2.151-0.146-3.229-0.219c-0.669-0.045-1.34-0.09-2.01-0.135c-0.768-0.051-1.538-0.102-2.308-0.153
	c-0.688-0.045-1.379-0.09-2.068-0.135c-0.544-0.035-1.09-0.071-1.636-0.106c-0.722-0.047-1.444-0.093-2.168-0.139
	c-0.593-0.038-1.188-0.076-1.782-0.113c-0.637-0.04-1.274-0.08-1.911-0.121c-0.71-0.044-1.421-0.089-2.133-0.133
	c-0.544-0.033-1.09-0.068-1.635-0.101c-0.92-0.056-1.842-0.113-2.763-0.169l-1.128-0.069c-1.029-0.062-2.06-0.123-3.09-0.185
	c-0.955-0.056-1.912-0.113-2.869-0.169c-0.521-0.031-1.043-0.061-1.565-0.091c-0.735-0.043-1.473-0.085-2.21-0.127
	c-0.52-0.03-1.04-0.06-1.561-0.089c-0.838-0.047-1.677-0.095-2.518-0.142l-1.145-0.064c-0.941-0.052-1.883-0.104-2.827-0.156
	l-0.536-0.029c-4.427-0.242-8.872-0.476-13.335-0.701l-0.925-0.047c-0.855-0.043-1.712-0.085-2.568-0.128
	c-0.452-0.022-0.903-0.045-1.355-0.067c-0.827-0.041-1.655-0.081-2.484-0.121c-0.452-0.021-0.905-0.043-1.357-0.065
	c-0.94-0.045-1.881-0.09-2.822-0.134c-1.01-0.047-2.021-0.095-3.031-0.142l-0.369-0.017l-1.341-0.061
	c23.895,23.882,49.038,46.476,75.22,67.833c224.811,15.548,397.4,52.472,452.901,98.175L1751.885,1212.338z"/>
<path style="fill:#EC6520;" d="M493.675,1263.64c-26.965-6.932-50.636-14.375-70.565-22.239l0,0l-0.169-0.067
	c-0.613-0.243-1.224-0.485-1.829-0.728l-0.358-0.144c-0.572-0.231-1.143-0.462-1.709-0.693l-0.366-0.148
	c-2.06-0.844-4.079-1.692-6.053-2.545l-0.149-0.064c-0.599-0.259-1.195-0.519-1.787-0.78l-0.296-0.131
	c-0.532-0.234-1.061-0.469-1.586-0.705l-0.387-0.173c-0.548-0.247-1.092-0.493-1.633-0.74l-0.21-0.096
	c-1.885-0.864-3.727-1.732-5.524-2.604l-0.254-0.124c-0.513-0.25-1.022-0.499-1.526-0.749l-0.281-0.14
	c-0.48-0.238-0.956-0.477-1.43-0.716l-0.345-0.174c-0.505-0.257-1.007-0.513-1.506-0.771l-0.171-0.088
	c-1.14-0.59-2.258-1.182-3.357-1.775l-0.163-0.088c-0.47-0.254-0.935-0.509-1.398-0.764l-0.365-0.203l-1.213-0.678l-0.354-0.2
	c-0.458-0.26-0.913-0.52-1.365-0.781l-0.129-0.074c-1.044-0.605-2.07-1.211-3.07-1.82l-0.039-0.024
	c-0.468-0.283-0.929-0.567-1.386-0.852l-0.256-0.16l-1.17-0.738l-0.284-0.181l-1.111-0.718l-0.286-0.187l-1.24-0.823l-0.087-0.057
	c-0.901-0.606-1.781-1.215-2.64-1.825l-0.219-0.155l-1.024-0.738l-0.299-0.22l-0.913-0.677l-0.334-0.25l-0.888-0.678l-0.285-0.22
	c-0.778-0.604-1.537-1.21-2.273-1.818l-0.173-0.143l-0.906-0.76l-0.266-0.229l-0.797-0.691l-0.27-0.238l-0.793-0.711l-0.22-0.201
	l-0.843-0.783l-0.152-0.142l-0.969-0.935l-0.027-0.026l-0.872-0.874l-0.254-0.26l-0.626-0.651l-0.275-0.294l-0.603-0.654
	l-0.242-0.266l-0.616-0.698l-0.202-0.23l-0.735-0.868l-0.045-0.054l-0.749-0.927l-0.177-0.227l-0.539-0.699l-0.212-0.285
	l-0.474-0.647l-0.224-0.314l-0.425-0.612l-0.223-0.327l-0.458-0.697l-0.145-0.223l-0.578-0.936l-0.076-0.129l-0.464-0.799
	l-0.161-0.288l-0.348-0.641l-0.177-0.339l-0.309-0.612l-0.159-0.324l-0.313-0.667l-0.127-0.276l-0.372-0.864l-0.033-0.076
	l-0.364-0.929l-0.109-0.299l-0.23-0.647l-0.113-0.342l-0.19-0.596l-0.111-0.371l-0.168-0.6l-0.092-0.343l-0.166-0.683l-0.063-0.263
	l-0.193-0.94l-0.036-0.21l-0.124-0.737l-0.048-0.333l-0.08-0.618l-0.04-0.36l-0.057-0.613l-0.027-0.345l-0.037-0.662l-0.013-0.296
	l-0.018-0.953c0-65.243,233.481-119.935,547.101-134.251c11.354-11.348,22.427-22.988,33.197-34.923
	c-391.005,13.571-689.852,87.424-689.852,176.496c0,3.456,0.451,6.888,1.338,10.295
	C317.688,1258.644,407.132,1273.42,493.675,1263.64z"/>
<path style="fill:#F18500;" d="M493.675,1263.64c87.829-9.927,172.667-45.142,236.825-83.55
	c-132.911,13.581-240.952,35.102-307.391,61.311C443.039,1249.265,466.71,1256.708,493.675,1263.64z"/>
<path style="fill:#874913;" d="M369.461,1212.318c-0.001,0.016-0.001,0.033-0.003,0.049c0.715,0.59,1.452,1.179,2.207,1.766
	l0.285,0.22l0.888,0.678l0.334,0.25l0.913,0.677l0.299,0.22l1.024,0.738l0.219,0.155c0.86,0.61,1.739,1.219,2.64,1.825l0.087,0.057
	l1.24,0.823l0.286,0.187l1.111,0.718l0.284,0.181l1.17,0.738l0.256,0.16c0.457,0.284,0.918,0.568,1.386,0.852l0.039,0.024
	c1.001,0.609,2.027,1.216,3.07,1.82l0.129,0.074c0.451,0.26,0.907,0.521,1.365,0.781l0.354,0.2l1.213,0.678l0.365,0.203
	c0.463,0.255,0.928,0.51,1.398,0.764l0.163,0.088c1.099,0.593,2.217,1.185,3.357,1.775l0.171,0.088c0.498,0.257,1,0.514,1.506,0.771
	l0.345,0.174c0.473,0.239,0.95,0.479,1.43,0.716l0.281,0.14c0.504,0.25,1.013,0.5,1.526,0.749l0.254,0.124
	c1.797,0.873,3.639,1.741,5.524,2.604l0.21,0.096c0.542,0.247,1.085,0.493,1.633,0.74l0.387,0.173
	c0.525,0.235,1.054,0.47,1.586,0.705l0.296,0.131c0.592,0.26,1.188,0.52,1.787,0.78l0.149,0.064
	c1.974,0.853,3.993,1.701,6.053,2.545l0.366,0.148c0.566,0.232,1.137,0.463,1.709,0.693l0.358,0.144
	c0.605,0.243,1.217,0.485,1.829,0.728l0.169,0.067l0,0c66.438-26.209,174.48-47.731,307.391-61.311
	c15.06-9.016,28.982-18.208,41.534-27.29c17.145-12.405,33.931-25.283,50.313-38.645
	C597.553,1129.702,424.976,1166.622,369.461,1212.318z"/>
<path style="fill:#5E2D09;" d="M350.501,1180.573c0,10.932,6.554,21.567,18.934,31.765c55.488-45.706,228.085-82.634,452.912-98.183
	c26.182-21.356,51.324-43.95,75.22-67.833C583.969,1060.634,350.501,1115.309,350.501,1180.573z"/>
<path style="fill:#F9C11B;" d="M1880.356,1197.129l-1.302,1.046c-75.43,60.476-164.886,75.249-251.438,65.461
	c-87.808-9.93-172.627-45.136-236.775-83.535c-15.068-9.02-28.996-18.216-41.554-27.302c-17.145-12.405-33.932-25.283-50.312-38.645
	c-26.182-21.356-51.325-43.95-75.22-67.833l-0.001,0c-11.359-11.354-22.438-22.997-33.212-34.938
	c-49.774-55.161-93.064-116.648-127.699-184.989c-0.731-1.442-1.459-2.887-2.183-4.335c-0.949,1.9-1.905,3.794-2.866,5.683
	c-0.446-1.084-0.885-2.169-1.32-3.254c0.435,1.086,0.875,2.171,1.32,3.255c-34.519,67.802-77.569,128.843-127.014,183.641
	c-10.77,11.935-21.843,23.575-33.197,34.923l-0.015,0.016c-23.896,23.882-49.039,46.476-75.22,67.833
	c-16.381,13.362-33.168,26.24-50.313,38.645c-12.552,9.082-26.474,18.274-41.534,27.29c-64.159,38.408-148.996,73.624-236.825,83.55
	c-86.543,9.78-175.988-4.996-251.41-65.465c-0.887-3.408-1.338-6.84-1.338-10.295c0,3.069,0.012,6.152,0.037,9.249l-0.037-0.029
	l0.038,0.132c1.616,203.032,56.966,463.513,320.548,606.401c19.703,3.408,39.709,5.086,59.678,4.865
	c38.398-0.425,73.605-9.811,108.703-24.986c0.682-0.295,1.363-0.594,2.044-0.892c-16.935,1.49-34.043,1.16-50.9-0.982
	c-49.622-6.308-98.211-28.176-136.136-60.827c-30.033-25.855-56.09-74.858-27.784-110.502c13.541-17.052,35.666-24.357,57.29-21.788
	c35.224,4.185,61.842,27.084,87.703,48.985c20.67,17.507,42.347,35.213,68.368,42.74c48.95,14.158,98.558-9.266,147.826-8.254
	c23.236,0.478,44.905,7.454,64.4,20.062c9.436,6.103,18.132,13.356,25.821,21.55c1.436,1.53,2.784,3.276,4.088,5.139
	c22.613,8.091,44.156,20.488,65.113,31.277c4.752-11.066,15.745-18.817,28.55-18.817c17.154,0,31.059,13.905,31.059,31.058
	c0,4.031-0.769,7.882-2.166,11.415c15.843,4.242,32.179,6.247,49.057,4.545c39.768-4.011,79.65-23.689,108.46-51.197
	c2.25-2.147,4.43-4.35,6.554-6.599c-8.808-3.217-17.886-5.479-27.391-6.248c-23.604-1.908-47.396,6.136-66.486,20.242
	c-0.641,0.473-1.408-0.283-0.936-0.924c4.682-6.361,8.678-14.481,13.755-19.892c7.69-8.194,16.386-15.448,25.822-21.55
	c19.496-12.608,41.165-19.584,64.399-20.062c8.569-0.176,17.149,0.388,25.732,1.364c6.904-11.069,13.505-22.34,20.308-33.385
	c10.108-16.412,20.213-33.927,35.179-46.428c12.384-10.345,27.796-15.237,43.762-15.835c37.911-1.421,74.648,12.373,112.688,10.46
	c40.359-2.029,77.708-17.964,109.205-42.187c-117.279-3.617-231.474-55.141-294.036-96.333
	c-113.939-75.028-201.524-164.365-260.582-265.746c-59.06,101.384-146.648,190.723-260.585,265.746
	c-64.865,42.709-185.269,96.528-307.032,96.538c-67.013,0.005-134.412-16.285-193.247-59.695c-4.285-3.16-5.196-9.196-2.034-13.479
	c3.162-4.285,9.194-5.196,13.479-2.034c157.183,115.973,381.554,26.229,478.233-37.432
	c116.85-76.94,205.247-169.082,262.735-273.861c1.693-3.087,4.931-5.004,8.451-5.004c3.52,0,6.757,1.917,8.451,5.004
	c57.486,104.777,145.88,196.916,262.733,273.861c64.349,42.368,185.261,96.292,305.282,93.427
	c18.546-18.169,34.322-39.273,46.544-61.764c5.422-9.979,10.166-20.288,14.228-30.845c-4.344-1.808-7.61-5.845-8.23-10.844
	c-0.848-7.386,4.39-14.071,11.773-14.919c3.78-0.46,7.373,0.704,10.104,2.937c133.636-94.73,167.548-209.888,168.81-214.307
	l0.037-0.132L1880.356,1197.129z"/>
<path style="fill:#EC6520;" d="M1225.095,1046.383l0.369,0.017c1.011,0.047,2.022,0.094,3.031,0.142
	c0.942,0.044,1.882,0.089,2.822,0.134l0.787,0.037l0.57,0.027c0.828,0.04,1.656,0.08,2.484,0.121
	c0.452,0.022,0.903,0.044,1.355,0.067c0.856,0.042,1.713,0.085,2.568,0.128l0.925,0.047c4.463,0.225,8.907,0.459,13.335,0.701
	l0.536,0.029c0.944,0.052,1.885,0.104,2.827,0.156l1.145,0.064c0.841,0.047,1.68,0.094,2.518,0.142
	c0.521,0.029,1.041,0.059,1.561,0.089c0.737,0.042,1.474,0.084,2.21,0.127c0.522,0.03,1.044,0.061,1.565,0.091
	c0.956,0.056,1.914,0.112,2.869,0.169c1.03,0.061,2.061,0.123,3.09,0.185l1.128,0.069c0.921,0.056,1.843,0.112,2.763,0.169
	c0.545,0.033,1.091,0.068,1.635,0.101c0.711,0.044,1.423,0.089,2.133,0.133c0.637,0.04,1.274,0.08,1.911,0.121
	c0.594,0.037,1.189,0.075,1.782,0.113c0.723,0.047,1.446,0.092,2.168,0.139c0.546,0.036,1.092,0.071,1.636,0.106
	c0.689,0.045,1.38,0.09,2.068,0.135c0.77,0.051,1.54,0.102,2.308,0.153c0.67,0.045,1.341,0.089,2.01,0.135
	c1.078,0.072,2.155,0.145,3.229,0.219c0.454,0.031,0.907,0.063,1.362,0.094c0.758,0.052,1.515,0.104,2.273,0.157
	c0.57,0.04,1.14,0.08,1.71,0.12c0.794,0.055,1.589,0.111,2.384,0.168c0.453,0.032,0.905,0.064,1.358,0.096
	c0.804,0.057,1.608,0.115,2.411,0.173c0.496,0.036,0.993,0.071,1.487,0.108c0.974,0.07,1.945,0.142,2.916,0.213l0.777,0.057
	c1.086,0.08,2.169,0.161,3.251,0.242c0.576,0.043,1.152,0.087,1.729,0.13c0.912,0.069,1.825,0.138,2.737,0.208l0.884,0.068
	c0.944,0.072,1.888,0.145,2.831,0.219c0.466,0.036,0.932,0.073,1.398,0.109c0.776,0.061,1.551,0.122,2.325,0.183
	c0.455,0.036,0.909,0.072,1.362,0.108c1.001,0.079,2.001,0.159,3,0.24l0.655,0.053c3.896,0.315,7.776,0.636,11.638,0.964
	l0.332,0.029c1.203,0.102,2.404,0.205,3.604,0.309l0.267,0.023c1.18,0.102,2.358,0.204,3.535,0.308l0.414,0.036
	c2.587,0.228,5.165,0.458,7.734,0.691s5.133,0.469,7.686,0.708l0.132,0.012c196.555,18.396,342.789,53.851,387.737,96.476
	l0.091,0.087l0.734,0.708l0.153,0.15l0.686,0.684l0.13,0.132l0.694,0.714l0.105,0.109l0.761,0.813l0.107,0.117l0.596,0.66
	l0.288,0.328l0.397,0.456l0.327,0.385l0.31,0.371l0.37,0.451l0.24,0.298l0.4,0.503l0.124,0.161c0.711,0.919,1.376,1.841,1.995,2.765
	l0.021,0.031c3.91,5.859,5.929,11.832,5.929,17.898c0,10.932-6.554,21.567-18.934,31.765l-0.01-0.009l-1.056,0.857l-0.154,0.122
	l-0.99,0.78l-0.226,0.175l-1.097,0.838l-0.06,0.045c-1.239,0.932-2.527,1.86-3.865,2.784l-0.126,0.087l-1.219,0.831l-0.147,0.1
	l-1.268,0.842l-0.103,0.068c-1.4,0.916-2.847,1.828-4.34,2.736l-0.144,0.087c-0.453,0.274-0.908,0.547-1.369,0.821l-0.159,0.094
	c-0.487,0.289-0.979,0.577-1.477,0.865l-0.025,0.015c-0.395,0.229-0.794,0.458-1.195,0.686c-1.205,0.685-2.438,1.368-3.695,2.048
	l-0.04,0.022c-0.531,0.287-1.068,0.574-1.609,0.859l-0.127,0.067c-0.546,0.288-1.095,0.576-1.65,0.863l-0.032,0.017
	c-1.743,0.902-3.532,1.799-5.369,2.691l-0.029,0.014c-0.587,0.285-1.18,0.57-1.777,0.854l-0.13,0.062
	c-0.587,0.279-1.178,0.558-1.774,0.836l-0.075,0.036c-2.511,1.172-5.105,2.336-7.777,3.492l-0.148,0.064
	c-0.625,0.27-1.256,0.539-1.889,0.808l-0.117,0.05c-2.715,1.151-5.509,2.293-8.38,3.427l-0.052,0.021
	c-19.931,7.865-43.602,15.308-70.568,22.241c86.552,9.787,177.309-5.929,252.739-66.405c0.343-3.124,0.405-5.856,0.405-9.312
	c0-89.072-299.213-162.966-690.218-176.536c10.773,11.941,21.852,23.584,33.212,34.938L1225.095,1046.383z"/>
<path style="fill:#F4A521;" d="M1711.545,1411.539c2.604,2.13,4.425,5.232,4.863,8.837c0.899,7.384-4.389,14.071-11.773,14.918
	c-0.551,0.049-1.099,0.1-1.598,0.1c-1.808,0-3.545-0.366-5.139-1.03c-4.062,10.556-8.805,20.866-14.228,30.845
	c-12.223,22.491-27.998,43.595-46.544,61.764c60.304-1.439,120.386-17.213,172.953-55.995c4.285-3.162,10.319-2.251,13.479,2.034
	c3.162,4.283,2.251,10.319-2.034,13.479c-62.632,46.209-135.009,61.687-206.246,59.49c-31.498,24.223-68.846,40.158-109.205,42.187
	c-38.04,1.913-74.777-11.881-112.688-10.46c-15.966,0.599-31.379,5.49-43.762,15.835c-14.966,12.501-25.071,30.016-35.179,46.428
	c-6.803,11.044-13.404,22.316-20.308,33.385c40.772,4.636,81.657,18.586,122.094,6.89c26.021-7.526,47.698-25.233,68.369-42.74
	c25.859-21.901,52.478-44.8,87.703-48.985c21.622-2.569,43.748,4.736,57.29,21.788c28.306,35.644,2.249,84.647-27.784,110.502
	c-37.926,32.651-86.515,54.52-136.138,60.827c-45.123,5.735-92.028-1.51-132.677-21.922c-24.799-12.453-48.123-29.927-73.751-39.291
	c-2.124,2.249-4.305,4.452-6.554,6.599c-28.81,27.508-68.693,47.186-108.46,51.197c-16.878,1.703-33.214-0.303-49.057-4.545
	c-4.549,11.504-15.77,19.642-28.893,19.642c-17.152,0-31.057-13.905-31.057-31.058c0-4.347,0.894-8.485,2.507-12.242
	c-20.957-10.789-42.501-23.186-65.113-31.277c3.305,4.723,6.31,10.19,9.668,14.753c0.472,0.641-0.296,1.397-0.935,0.924
	c-19.091-14.105-42.883-22.15-66.487-20.242c-37.164,3.005-67.821,28.807-101.141,45.539
	c-25.463,12.786-53.381,20.406-81.778,22.905c-0.681,0.298-1.362,0.597-2.044,0.892c-35.097,15.175-70.304,24.561-108.703,24.986
	c-20.008,0.221-40.053-1.461-59.794-4.883c104.965,56.924,242.92,95.22,423.743,103.761c0.159,0.007,0.317,0.015,0.475,0.022
	c1.239,0.058,2.48,0.115,3.722,0.17c0.24,0.011,0.478,0.021,0.717,0.032c1.192,0.052,2.386,0.104,3.582,0.154
	c0.24,0.01,0.48,0.02,0.72,0.03c1.169,0.048,2.342,0.095,3.514,0.141c0.285,0.011,0.568,0.022,0.852,0.033
	c1.406,0.054,2.815,0.107,4.226,0.158l0.198,0.007c3.622,0.13,7.26,0.248,10.916,0.354c1.218,0.035,2.438,0.069,3.66,0.102h0.006
	c1.558,0.042,3.121,0.081,4.685,0.118l0.593,0.014c1.376,0.032,2.754,0.063,4.135,0.092l0.782,0.017
	c1.504,0.031,3.011,0.06,4.52,0.087l0.185,0.004c3.188,0.057,6.388,0.105,9.602,0.144l1.055,0.013
	c1.212,0.014,2.426,0.027,3.642,0.038c0.451,0.004,0.903,0.008,1.353,0.012c1.205,0.01,2.412,0.019,3.62,0.027l1.084,0.007
	c1.592,0.01,3.185,0.017,4.783,0.022v0.014c0.967,0,1.927-0.005,2.893-0.007c0.964,0.002,1.924,0.007,2.891,0.007v-0.014
	c19.671-0.064,38.882-0.454,57.64-1.16c3.125-0.118,6.24-0.245,9.341-0.379c3.101-0.135,6.19-0.279,9.267-0.431
	c4.614-0.229,9.201-0.477,13.759-0.744c4.559-0.267,9.09-0.554,13.593-0.859c15.01-1.019,29.713-2.249,44.114-3.684
	c41.231-4.109,79.991-9.899,116.421-17.206c17.143-3.439,33.771-7.215,49.898-11.309c4.032-1.024,8.031-2.068,12-3.131
	c23.816-6.38,46.511-13.469,68.139-21.211c5.407-1.935,10.748-3.911,16.021-5.927c5.274-2.016,10.482-4.073,15.625-6.167
	c11.999-4.888,23.644-9.989,34.943-15.291c3.229-1.515,6.429-3.046,9.6-4.593c2.38-1.161,4.743-2.33,7.09-3.509
	c2.739-1.375,5.456-2.762,8.155-4.162c2.697-1.399,5.373-2.811,8.027-4.234c2.275-1.22,4.535-2.449,6.779-3.686
	c2.993-1.649,5.959-3.315,8.898-4.995c0.734-0.42,1.468-0.841,2.199-1.263c3.657-2.109,7.271-4.242,10.844-6.398
	c1.43-0.862,2.852-1.728,4.268-2.598c2.124-1.304,4.234-2.617,6.328-3.937c4.188-2.642,8.317-5.315,12.387-8.019
	c1.357-0.902,2.708-1.807,4.052-2.715c1.345-0.909,2.682-1.821,4.013-2.736c1.33-0.915,2.655-1.833,3.973-2.756
	c1.318-0.922,2.63-1.848,3.935-2.776c2.61-1.858,5.196-3.729,7.755-5.613c3.841-2.826,7.624-5.682,11.351-8.567
	c1.242-0.961,2.479-1.926,3.708-2.894c2.46-1.935,4.895-3.884,7.305-5.845c1.808-1.47,3.602-2.948,5.381-4.432
	c0.593-0.495,1.185-0.991,1.776-1.487c1.18-0.992,2.355-1.988,3.524-2.986c1.169-0.999,2.331-2,3.487-3.005
	c1.157-1.004,2.307-2.012,3.451-3.022c4.577-4.041,9.059-8.129,13.447-12.262c2.741-2.583,5.447-5.184,8.116-7.801
	c0.534-0.524,1.067-1.048,1.598-1.573c1.593-1.575,3.172-3.155,4.739-4.742c1.044-1.058,2.083-2.118,3.116-3.181
	c3.1-3.188,6.146-6.4,9.144-9.636c0.999-1.078,1.992-2.159,2.979-3.242c0.495-0.542,0.986-1.084,1.477-1.626
	c0.983-1.086,1.959-2.174,2.93-3.265c0.486-0.545,0.969-1.091,1.452-1.637c1.932-2.187,3.839-4.382,5.726-6.587
	c0.471-0.552,0.941-1.103,1.412-1.656c0.937-1.105,1.869-2.212,2.796-3.322c1.854-2.219,3.686-4.447,5.496-6.684
	c0.905-1.119,1.805-2.24,2.699-3.363c0.894-1.123,1.783-2.248,2.668-3.376c0.883-1.127,1.761-2.256,2.634-3.389
	c0.438-0.566,0.872-1.132,1.306-1.699c0.868-1.134,1.731-2.27,2.587-3.407c0.858-1.138,1.71-2.278,2.557-3.421
	c1.269-1.713,2.528-3.431,3.774-5.153c0.832-1.148,1.658-2.298,2.478-3.451c2.052-2.881,4.072-5.773,6.06-8.677
	c1.192-1.743,2.374-3.49,3.543-5.241c0.781-1.167,1.556-2.337,2.325-3.508c0.77-1.171,1.535-2.344,2.295-3.519
	c0.759-1.175,1.514-2.351,2.264-3.529c0.749-1.178,1.495-2.358,2.235-3.54c1.48-2.363,2.941-4.733,4.38-7.11
	c0.721-1.188,1.438-2.378,2.148-3.57c0.71-1.191,1.416-2.385,2.118-3.58c0.35-0.597,0.699-1.195,1.048-1.793
	c0.697-1.196,1.387-2.394,2.074-3.594c2.06-3.598,4.077-7.21,6.052-10.835c0.657-1.208,1.312-2.418,1.961-3.629
	c0.649-1.211,1.293-2.424,1.933-3.637c1.599-3.034,3.169-6.078,4.711-9.128c0.618-1.22,1.229-2.442,1.837-3.665
	c0.608-1.223,1.211-2.447,1.81-3.672c0.298-0.613,0.597-1.226,0.894-1.839c0.891-1.84,1.772-3.683,2.644-5.528
	c1.742-3.69,3.445-7.391,5.109-11.102c0.554-1.237,1.105-2.474,1.651-3.713c0.273-0.62,0.544-1.239,0.815-1.859
	c0.542-1.24,1.079-2.481,1.612-3.722c0.799-1.863,1.589-3.728,2.369-5.595c0.259-0.622,0.519-1.245,0.777-1.867
	c0.773-1.868,1.538-3.739,2.294-5.611c0.251-0.625,0.502-1.248,0.751-1.873c0.499-1.249,0.995-2.498,1.485-3.749
	c0.492-1.251,0.978-2.502,1.462-3.754c0.723-1.878,1.438-3.758,2.144-5.64c0.47-1.254,0.936-2.51,1.399-3.765
	c0.461-1.256,0.919-2.513,1.375-3.77c0.453-1.257,0.904-2.515,1.351-3.773c0.892-2.517,1.77-5.036,2.63-7.558
	c0.431-1.261,0.857-2.523,1.28-3.784c0.423-1.262,0.842-2.524,1.257-3.787c1.038-3.157,2.051-6.318,3.041-9.481
	c0.792-2.531,1.569-5.062,2.33-7.595c0.571-1.9,1.134-3.801,1.689-5.703c2.958-10.141,5.681-20.3,8.184-30.462
	c0.313-1.27,0.622-2.541,0.928-3.811c1.224-5.081,2.392-10.162,3.509-15.24c0.277-1.27,0.554-2.539,0.827-3.809
	c0.953-4.443,1.867-8.883,2.741-13.321c0.25-1.268,0.496-2.535,0.739-3.803c2.193-11.405,4.13-22.785,5.833-34.115
	c0.19-1.259,0.376-2.517,0.56-3.775c0.733-5.03,1.423-10.051,2.068-15.059c0.161-1.252,0.319-2.503,0.475-3.753
	c1.324-10.629,2.452-21.199,3.403-31.691c0.111-1.234,0.221-2.468,0.328-3.7c0.535-6.161,1.008-12.294,1.425-18.394
	c0.083-1.22,0.165-2.439,0.243-3.656c1.363-21.071,2.05-41.746,2.21-61.859C1879.093,1201.651,1845.181,1316.809,1711.545,1411.539z
	 M1734.37,1431.004c-0.748,0.149-1.498,0.197-2.246,0.197c-6.436,0-12.121-4.638-13.22-11.225
	c-1.247-7.284,3.691-14.268,11.026-15.515c7.284-1.196,14.268,3.693,15.466,11.025
	C1746.643,1422.821,1741.703,1429.757,1734.37,1431.004z M1763.905,1425.316c-0.999,0.2-1.947,0.3-2.894,0.3
	c-6.185,0-11.774-4.292-13.121-10.577c-1.598-7.284,2.994-14.419,10.278-16.015c7.283-1.598,14.416,2.994,16.014,10.278
	C1775.729,1416.585,1771.14,1423.718,1763.905,1425.316z M1786.204,1392.288c7.135-1.895,14.519,2.346,16.414,9.53
	c1.898,7.184-2.395,14.568-9.578,16.463c-1.147,0.299-2.295,0.448-3.442,0.448c-5.937,0-11.425-3.99-12.972-10.026
	C1774.73,1401.518,1778.972,1394.183,1786.204,1392.288z"/>
<path style="fill:#F9C11B;" d="M1180.093,428.553c-14.727-37.985-41.875-71.73-55.478-110.284
	c-8.173-23.169-11.009-46.757-12.615-70.45c-3.482,26.492-12.022,42.204-26.447,63.186c-25.048,36.431-64.252,62.393-100.558,89.927
	c-15.151,11.49-30.028,23.761-43.265,37.137c-11.074,15.457-20.619,31.765-27.72,49.302c-11.715,28.931-14.957,60.905-6.662,92.185
	c9.178,34.607,31.256,66.107,55.172,94.767c29.133,34.912,62.753,66.616,94.843,99.349c6.341,6.468,16.609,2.827,17.487-4.766
	c2.855-24.694,6.496-50.437,17.508-72.929c10.019-20.462,25.468-37.981,40.063-55.711c25.008-30.375,44.099-64.035,53.074-101.88
	C1193.934,502.802,1194.035,464.507,1180.093,428.553z"/>
<path style="fill:#EF7909;" d="M1060.66,822.06c0.723,1.449,1.452,2.893,2.183,4.335c0.206-1.185,0.427-2.366,0.661-3.543
	c0.079-0.392,0.16-0.784,0.241-1.175l0.28-1.31c0.286-1.309,0.591-2.612,0.912-3.911l0.328-1.297
	c0.222-0.864,0.452-1.725,0.69-2.584c0.119-0.429,0.238-0.858,0.362-1.286c0.245-0.857,0.497-1.711,0.756-2.563
	c0.129-0.426,0.261-0.852,0.395-1.276c0.401-1.275,0.817-2.544,1.25-3.809c0.145-0.422,0.291-0.843,0.439-1.263
	c0.443-1.261,0.904-2.517,1.377-3.767c0.475-1.251,0.963-2.496,1.469-3.736c0.336-0.827,0.68-1.651,1.029-2.474
	c0.524-1.233,1.064-2.462,1.617-3.684l0.558-1.221c0.563-1.219,1.139-2.434,1.729-3.642l0.594-1.207
	c0.4-0.804,0.805-1.605,1.216-2.404c0.412-0.799,0.828-1.595,1.251-2.389l0.638-1.189c0.428-0.792,0.861-1.581,1.301-2.368
	c0.439-0.787,0.884-1.572,1.333-2.354c0.676-1.173,1.363-2.341,2.061-3.504c0.466-0.775,0.938-1.548,1.413-2.318
	c2.619-4.237,5.389-8.402,8.287-12.494c0.527-0.744,1.059-1.485,1.594-2.224c0.535-0.739,1.076-1.476,1.619-2.21
	c0.543-0.734,1.091-1.466,1.643-2.195l0.83-1.092c0.555-0.727,1.116-1.451,1.678-2.173c1.125-1.444,2.266-2.878,3.42-4.302
	c0.578-0.712,1.157-1.422,1.742-2.129c2.043-2.475,4.126-4.92,6.245-7.334c0.605-0.69,1.212-1.377,1.823-2.062l0.918-1.025
	c1.225-1.365,2.463-2.719,3.709-4.063l0.937-1.007c0.938-1.004,1.882-2.003,2.829-2.996c0.632-0.662,1.267-1.322,1.903-1.979
	c0.636-0.657,1.274-1.312,1.913-1.964l0.961-0.976c0.642-0.65,1.285-1.296,1.931-1.941c0.645-0.644,1.291-1.286,1.939-1.925
	c0.648-0.639,1.297-1.276,1.949-1.91l0.977-0.949c0.653-0.632,1.306-1.26,1.961-1.887c0.654-0.626,1.311-1.25,1.966-1.871
	c1.642-1.553,3.291-3.09,4.943-4.61c2.314-2.129,4.636-4.226,6.96-6.291c1.66-1.475,3.326-2.951,4.996-4.432
	c2.004-1.776,4.012-3.557,6.022-5.343c0.671-0.595,1.341-1.191,2.011-1.788c0.67-0.597,1.341-1.194,2.011-1.792
	c2.01-1.794,4.018-3.595,6.022-5.404c2.337-2.11,4.669-4.231,6.987-6.365c3.622-3.334,7.21-6.699,10.743-10.104
	c1.008-0.973,2.015-1.949,3.013-2.928c1.5-1.469,2.989-2.946,4.463-4.431c1.475-1.485,2.938-2.978,4.383-4.481
	c0.964-1.001,1.922-2.007,2.872-3.017c22.331-23.729,40.638-49.76,47.806-80.539c3.538-15.191,4.146-30.576,2.517-45.999
	c-0.204-1.931-0.445-3.862-0.717-5.794c-0.106-0.751-0.216-1.503-0.332-2.255c-0.519-3.355-1.138-6.709-1.849-10.063l-0.109-0.517
	c-0.618-2.873-1.304-5.744-2.052-8.615c-0.249-0.956-0.505-1.913-0.77-2.869c-0.405-1.467-0.825-2.934-1.262-4.399
	c-0.291-0.977-0.588-1.954-0.893-2.931c-0.152-0.488-0.307-0.976-0.461-1.464c-0.507-1.589-1.032-3.176-1.573-4.763
	c-0.29-0.851-0.584-1.7-0.883-2.55c-1.202-3.409-2.481-6.811-3.828-10.206c-0.577-1.455-1.168-2.909-1.77-4.36
	c-0.2-0.484-0.402-0.968-0.606-1.451c-10.978-26.117-25.78-51.715-40.917-76c-35.878-57.564-66.82-100.184-83.413-165.521v0.008
	l0.006,1.272l0.001,0.193l0.001,1.067v0.156c-0.003,12.776-0.621,23.451-1.846,32.826l0.011,0.166
	c1.605,23.692,4.442,47.281,12.615,70.45c13.602,38.554,40.75,72.299,55.478,110.284c13.942,35.954,13.842,74.249,5.402,109.833
	c-8.976,37.845-28.067,71.505-53.074,101.88c-14.595,17.73-30.044,35.248-40.063,55.711c-11.012,22.491-14.653,48.234-17.508,72.929
	c-0.878,7.593-11.146,11.234-17.487,4.766c-32.09-32.733-65.71-64.437-94.843-99.349c-23.916-28.66-45.994-60.16-55.172-94.767
	c-8.295-31.28-5.052-63.253,6.662-92.185c7.134-17.619,16.731-34.001,27.871-49.523c-16.826,16.884-31.012,35.549-39.277,56.974
	l-0.22,0.574l-0.369,0.985l-0.468,1.286l-0.169,0.478c-0.188,0.532-0.372,1.066-0.552,1.602l-0.111,0.333
	c-0.193,0.579-0.383,1.159-0.567,1.742c-4.023,12.746-5.813,26.057-5.862,39.542c-0.008,2.388,0.038,4.781,0.136,7.178
	c0.157,3.835,0.447,7.678,0.859,11.52c0.052,0.481,0.105,0.961,0.161,1.441c0.995,8.646,2.599,17.283,4.687,25.812
	c0.981,4.009,2.07,8.004,3.262,11.98c0.397,1.326,0.806,2.648,1.226,3.969c1.262,3.962,2.626,7.904,4.092,11.821
	c0.245,0.653,0.492,1.305,0.742,1.957c0.5,1.303,1.011,2.603,1.534,3.9c1.566,3.891,3.234,7.756,4.999,11.59
	c0.588,1.278,1.188,2.552,1.798,3.823c0.61,1.271,1.23,2.538,1.861,3.802c0.948,1.895,1.918,3.782,2.914,5.66
	c1.99,3.756,4.076,7.476,6.253,11.156c1.089,1.839,2.2,3.67,3.335,5.489c1.893,3.033,3.848,6.036,5.866,9.007
	c0.806,1.188,1.623,2.372,2.451,3.551c4.548,6.481,9.394,12.803,14.526,18.942c1.401,1.674,2.821,3.335,4.263,4.982
	c0.961,1.097,1.932,2.189,2.911,3.274c0.979,1.085,1.968,2.163,2.966,3.235c1.778,1.91,3.585,3.798,5.412,5.67
	c1.86,1.903,3.742,3.789,5.642,5.661l0.055,0.054c3.1,3.053,6.244,6.071,9.411,9.072l0.213,0.201
	c3.133,2.969,6.287,5.922,9.438,8.878c0.73,0.685,1.461,1.37,2.189,2.055c1.212,1.138,2.423,2.278,3.63,3.42l0.216,0.205
	c1.223,1.156,2.442,2.315,3.658,3.477c1.325,1.266,2.644,2.536,3.957,3.811c3.152,3.064,6.267,6.158,9.316,9.302
	c2.451,2.528,4.859,5.087,7.212,7.69l0.873,0.979c0.575,0.656,1.14,1.316,1.692,1.982l0.82,1.001
	c0.81,1.005,1.595,2.021,2.357,3.046c1.269,1.709,2.473,3.444,3.617,5.205c0.458,0.704,0.908,1.412,1.349,2.123
	c0.66,1.067,1.301,2.143,1.924,3.226c0.416,0.722,0.824,1.447,1.223,2.176c0.401,0.728,0.794,1.46,1.18,2.194
	c0.386,0.735,0.766,1.472,1.14,2.213c0.747,1.48,1.468,2.971,2.17,4.472c0.351,0.75,0.696,1.503,1.038,2.258l0.509,1.134
	c0.336,0.757,0.668,1.516,0.996,2.276c0.658,1.522,1.3,3.05,1.931,4.584c0.315,0.767,0.629,1.536,0.939,2.305l0.465,1.156
	c0.309,0.771,0.616,1.543,0.922,2.316l0.456,1.16c0.305,0.774,0.609,1.549,0.911,2.324c0.303,0.775,0.606,1.551,0.909,2.327
	l0.453,1.164c0.607,1.554,1.213,3.108,1.824,4.662c0.429,1.087,0.86,2.174,1.296,3.259c0.435,1.086,0.875,2.171,1.32,3.254
	C1058.755,825.853,1059.71,823.959,1060.66,822.06z"/>
<path style="fill:#FFDB00;" d="M1045.004,755.935c3.919-18.746,16.298-37.581,27.708-49.571
	c30.966-32.544,59.742-67.222,77.045-106.932c17.302-39.709,22.468-85.121,6.096-128.111c-17.891-46.98-60.72-87.726-79.333-134.569
	c1.611,45.064-28.206,83.505-58.07,118.302c-29.865,34.797-61.876,71.185-65.569,115.689c-2.538,30.596,8.88,62.35,26.369,91.185
	C996.741,690.763,1021.746,729.739,1045.004,755.935z"/>
<path style="fill:#683C11;" d="M1821.525,1486.49c4.285-3.16,5.196-9.196,2.034-13.479c-3.16-4.285-9.194-5.196-13.479-2.034
	c-52.567,38.782-112.649,54.557-172.953,55.995c-120.022,2.864-240.933-51.059-305.282-93.427
	c-116.853-76.945-205.247-169.084-262.733-273.861c-1.693-3.087-4.931-5.004-8.451-5.004c-3.52,0-6.758,1.917-8.451,5.004
	c-57.488,104.779-145.885,196.921-262.735,273.861c-96.679,63.661-321.05,153.405-478.233,37.432
	c-4.285-3.162-10.317-2.251-13.479,2.034c-3.162,4.283-2.251,10.319,2.034,13.479c58.836,43.41,126.234,59.7,193.247,59.695
	c121.764-0.01,242.167-53.83,307.032-96.538c113.937-75.023,201.525-164.363,260.585-265.746
	c59.057,101.381,146.643,190.718,260.582,265.746c62.561,41.192,176.757,92.716,294.036,96.333
	C1686.516,1548.178,1758.892,1532.699,1821.525,1486.49z"/>
<path style="fill:#683C11;" d="M351.01,1395.781c-7.233-1.598-14.417,2.991-16.015,10.226c-1.595,7.284,2.994,14.468,10.229,16.066
	c0.996,0.2,1.944,0.297,2.943,0.297c6.137,0,11.725-4.29,13.121-10.575C362.886,1404.561,358.294,1397.377,351.01,1395.781z"/>
<path style="fill:#683C11;" d="M379.249,1401.318c-7.335-1.247-14.268,3.642-15.515,10.977c-1.247,7.332,3.69,14.268,10.974,15.515
	c0.799,0.149,1.547,0.2,2.294,0.2c6.436,0,12.124-4.641,13.272-11.177C391.522,1409.501,386.583,1402.566,379.249,1401.318z"/>
<path style="fill:#683C11;" d="M323.022,1388.946c-7.184-1.895-14.519,2.343-16.463,9.53c-1.898,7.184,2.343,14.568,9.528,16.463
	c1.147,0.299,2.346,0.448,3.493,0.448c5.936,0,11.374-3.941,12.972-9.978C334.496,1398.276,330.206,1390.892,323.022,1388.946z"/>
<path style="fill:#683C11;" d="M1758.168,1399.024c-7.284,1.595-11.876,8.731-10.278,16.015c1.347,6.285,6.935,10.577,13.121,10.577
	c0.947,0,1.895-0.1,2.894-0.3c7.235-1.598,11.825-8.731,10.277-16.014C1772.584,1402.017,1765.451,1397.426,1758.168,1399.024z"/>
<path style="fill:#683C11;" d="M1776.626,1408.702c1.547,6.036,7.035,10.026,12.972,10.026c1.147,0,2.295-0.149,3.442-0.448
	c7.184-1.895,11.476-9.279,9.578-16.463c-1.895-7.184-9.279-11.425-16.414-9.53
	C1778.972,1394.183,1774.73,1401.518,1776.626,1408.702z"/>
<path style="fill:#683C11;" d="M1729.929,1404.461c-7.335,1.247-12.273,8.231-11.026,15.515c1.099,6.587,6.785,11.225,13.22,11.225
	c0.748,0,1.498-0.048,2.246-0.197c7.333-1.247,12.273-8.183,11.026-15.518C1744.197,1408.154,1737.213,1403.265,1729.929,1404.461z"
	/>
<path style="fill:#683C11;" d="M1704.636,1435.294c7.384-0.848,12.672-7.534,11.773-14.918c-0.438-3.604-2.259-6.707-4.863-8.837
	c-2.731-2.233-6.324-3.397-10.104-2.937c-7.383,0.848-12.621,7.532-11.773,14.919c0.62,4.999,3.885,9.036,8.23,10.844
	c1.594,0.664,3.332,1.03,5.139,1.03C1703.537,1435.394,1704.085,1435.343,1704.636,1435.294z"/>
<path style="fill:#683C11;" d="M1089.286,1026.142c6.687-3.242,9.481-11.325,6.188-17.959h0.048
	c-3.291-6.687-11.325-9.481-18.009-6.236c-6.685,3.242-9.43,11.323-6.185,18.009c2.344,4.79,7.084,7.532,12.073,7.532
	C1085.397,1027.489,1087.392,1027.09,1089.286,1026.142z"/>
<path style="fill:#683C11;" d="M1076.417,999.602c6.784-2.994,9.827-10.977,6.833-17.761c-2.343-5.289-7.732-8.331-13.22-7.932
	c0.799-0.999,1.447-2.095,1.946-3.294c2.843-6.835-0.4-14.719-7.235-17.61c-6.884-2.845-14.767,0.397-17.61,7.233
	c-2.845,6.884,0.4,14.768,7.233,17.613c1.998,0.848,4.093,1.148,6.088,0.996c-1.199,1.547-2.095,3.342-2.546,5.24
	c-1.247-1.598-2.843-2.894-4.738-3.841c-6.684-3.194-14.767-0.4-17.961,6.285c-3.242,6.687-0.448,14.719,6.288,17.961
	c1.844,0.899,3.839,1.348,5.785,1.348c5.04,0,9.829-2.794,12.173-7.632c0.399-0.85,0.699-1.698,0.898-2.594
	C1064.093,1000.35,1070.678,1002.145,1076.417,999.602z"/>
<path style="fill:#683C11;" d="M464.961,1409.301c-7.435-0.1-13.571,5.837-13.671,13.269c-0.1,7.435,5.888,13.572,13.271,13.672h0.2
	c7.332,0,13.369-5.937,13.469-13.272C478.33,1415.538,472.393,1409.401,464.961,1409.301z"/>
<path style="fill:#683C11;" d="M1502.979,1393.735c-7.135-2.047-14.619,2.095-16.665,9.23c-2.043,7.132,2.095,14.568,9.23,16.662
	c1.247,0.348,2.495,0.499,3.742,0.499c5.837,0,11.225-3.842,12.921-9.73C1514.253,1403.214,1510.112,1395.781,1502.979,1393.735z"/>
<path style="fill:#683C11;" d="M1672.855,1411.245c-7.384,0.499-13.021,6.887-12.524,14.319c0.499,7.135,6.387,12.573,13.422,12.573
	l0.896-0.049c7.435-0.499,13.021-6.887,12.524-14.319C1686.675,1416.385,1680.287,1410.748,1672.855,1411.245z"/>
<path style="fill:#683C11;" d="M493.597,1408.902c-7.432,0.348-13.22,6.584-12.872,14.02c0.299,7.233,6.236,12.872,13.42,12.872
	h0.551c7.432-0.299,13.22-6.587,12.872-14.019C507.268,1414.39,500.98,1408.602,493.597,1408.902z"/>
<path style="fill:#683C11;" d="M578.561,1397.976c-7.284,1.547-11.876,8.731-10.277,16.014c1.396,6.285,6.933,10.577,13.12,10.577
	c0.948,0,1.947-0.1,2.894-0.351c7.284-1.596,11.873-8.731,10.278-16.014C592.978,1400.97,585.794,1396.378,578.561,1397.976z"/>
<path style="fill:#683C11;" d="M522.084,1406.907c-7.384,0.748-12.772,7.332-12.022,14.716c0.697,6.935,6.534,12.124,13.369,12.124
	c0.451,0,0.899-0.051,1.347-0.051c7.384-0.748,12.772-7.332,12.024-14.716C536.104,1411.545,529.519,1406.156,522.084,1406.907z"/>
<path style="fill:#683C11;" d="M606.298,1391.041c-7.133,1.995-11.323,9.43-9.327,16.563c1.695,5.939,7.084,9.83,12.972,9.83
	c1.196,0,2.394-0.149,3.642-0.499c7.133-1.995,11.326-9.43,9.328-16.614C620.868,1393.187,613.434,1388.995,606.298,1391.041z"/>
<path style="fill:#683C11;" d="M550.471,1403.265c-7.332,1.147-12.372,8.032-11.174,15.364c1.048,6.636,6.736,11.376,13.272,11.376
	c0.696,0,1.395-0.051,2.095-0.2c7.332-1.147,12.373-8.031,11.174-15.366C564.69,1407.106,557.807,1402.066,550.471,1403.265z"/>
<path style="fill:#683C11;" d="M712.218,1347.886c-6.536,3.542-8.982,11.725-5.44,18.261c2.446,4.49,7.084,7.032,11.824,7.032
	c2.195,0,4.39-0.499,6.385-1.595v-0.051c6.536-3.491,8.982-11.674,5.44-18.209C726.934,1346.787,718.751,1344.344,712.218,1347.886z
	"/>
<path style="fill:#683C11;" d="M1475.737,1385.053c-7.033-2.443-14.716,1.247-17.162,8.234c-2.444,7.033,1.247,14.716,8.234,17.162
	c1.496,0.499,2.991,0.748,4.49,0.748c5.537,0,10.726-3.443,12.672-8.979C1486.414,1395.182,1482.724,1387.547,1475.737,1385.053z"/>
<path style="fill:#683C11;" d="M407.687,1405.46c-7.384-0.899-14.071,4.341-14.967,11.725c-0.85,7.383,4.39,14.116,11.774,14.967
	c0.548,0.1,1.096,0.1,1.647,0.1c6.684,0,12.473-4.989,13.32-11.825C420.36,1413.043,415.071,1406.356,407.687,1405.46z"/>
<path style="fill:#683C11;" d="M1449.047,1374.826c-6.835-2.894-14.767,0.348-17.613,7.184c-2.843,6.884,0.351,14.767,7.235,17.612
	c1.696,0.697,3.443,1.048,5.189,1.048c5.238,0,10.277-3.094,12.421-8.283C1459.125,1385.552,1455.88,1377.669,1449.047,1374.826z"/>
<path style="fill:#683C11;" d="M1397.559,1349.781c-6.536-3.591-14.716-1.247-18.309,5.237c-3.642,6.487-1.296,14.67,5.24,18.312
	c2.043,1.147,4.29,1.696,6.485,1.696c4.741,0,9.33-2.495,11.773-6.936C1406.39,1361.606,1404.047,1353.423,1397.559,1349.781z"/>
<path style="fill:#683C11;" d="M1422.955,1363.002c-6.687-3.242-14.719-0.448-17.961,6.236c-3.242,6.687-0.499,14.719,6.185,17.961
	c1.897,0.947,3.892,1.398,5.887,1.398c4.989,0,9.779-2.794,12.124-7.583C1432.433,1374.327,1429.64,1366.296,1422.955,1363.002z"/>
<path style="fill:#683C11;" d="M686.622,1360.858c-6.685,3.192-9.578,11.225-6.385,17.91c2.295,4.889,7.133,7.732,12.173,7.732
	c1.947,0,3.891-0.448,5.737-1.296c6.736-3.194,9.579-11.225,6.388-17.961C701.341,1360.559,693.358,1357.664,686.622,1360.858z"/>
<path style="fill:#683C11;" d="M436.274,1408.154c-7.384-0.499-13.82,5.089-14.319,12.521c-0.499,7.383,5.089,13.82,12.521,14.319
	l0.899,0.048c7.036,0,12.921-5.486,13.421-12.572C449.295,1415.038,443.706,1408.651,436.274,1408.154z"/>
<path style="fill:#683C11;" d="M633.641,1382.51c-7.036,2.394-10.777,10.078-8.383,17.062c1.946,5.588,7.135,9.079,12.721,9.079
	c1.447,0.051,2.945-0.197,4.392-0.696c7.033-2.446,10.774-10.078,8.331-17.114C648.308,1383.806,640.625,1380.064,633.641,1382.51z"
	/>
<path style="fill:#683C11;" d="M660.43,1372.432c-6.884,2.794-10.178,10.677-7.384,17.51c2.146,5.24,7.135,8.382,12.472,8.382
	c1.698,0,3.394-0.3,5.041-0.996c6.884-2.794,10.178-10.677,7.383-17.513C675.149,1372.931,667.317,1369.638,660.43,1372.432z"/>
<path style="fill:#683C11;" d="M1530.668,1400.77c-7.235-1.598-14.468,2.943-16.066,10.226c-1.596,7.235,2.945,14.419,10.178,16.066
	c0.999,0.2,1.995,0.297,2.945,0.297c6.185,0,11.722-4.239,13.121-10.526C1542.492,1409.601,1537.903,1402.415,1530.668,1400.77z"/>
<path style="fill:#683C11;" d="M1615.581,1411.945c-7.435-0.349-13.72,5.437-14.02,12.872c-0.348,7.384,5.438,13.671,12.821,14.02
	h0.6c7.184,0,13.12-5.637,13.471-12.872C1628.752,1418.532,1623.013,1412.244,1615.581,1411.945z"/>
<path style="fill:#683C11;" d="M1558.706,1406.156c-7.335-1.196-14.219,3.793-15.418,11.128
	c-1.196,7.384,3.793,14.268,11.125,15.464c0.75,0.1,1.447,0.151,2.198,0.151c6.433,0,12.173-4.69,13.269-11.326
	C1571.028,1414.239,1566.039,1407.355,1558.706,1406.156z"/>
<path style="fill:#683C11;" d="M1644.216,1412.393c-7.432,0.1-13.369,6.187-13.269,13.623c0.1,7.384,6.085,13.269,13.42,13.269h0.2
	c7.433-0.1,13.369-6.185,13.269-13.62C1657.737,1418.232,1651.651,1412.295,1644.216,1412.393z"/>
<path style="fill:#683C11;" d="M1587.043,1409.898c-7.384-0.797-14.02,4.641-14.716,12.025c-0.748,7.383,4.589,13.971,11.973,14.719
	c0.499,0.048,0.948,0.1,1.396,0.1c6.836,0,12.673-5.189,13.372-12.124C1599.814,1417.233,1594.426,1410.648,1587.043,1409.898z"/>
<path style="fill:#683C11;" d="M1108.646,1034.076c-3.444-6.536-11.576-9.082-18.161-5.64c-6.585,3.493-9.13,11.625-5.637,18.212
	c2.395,4.538,7.084,7.184,11.922,7.184c2.098,0,4.241-0.499,6.236-1.547C1109.594,1048.792,1112.137,1040.661,1108.646,1034.076z"/>
<path style="fill:#683C11;" d="M1040.295,1006.837c-6.584-3.445-14.719-0.95-18.16,5.637c-3.443,6.585-0.897,14.716,5.688,18.161
	c1.995,1.047,4.09,1.544,6.236,1.544c4.84,0,9.479-2.594,11.925-7.184C1049.426,1018.41,1046.88,1010.279,1040.295,1006.837z"/>
<path style="fill:#683C11;" d="M761.309,1318.052c-6.136,4.141-7.783,12.521-3.593,18.658c2.594,3.842,6.835,5.937,11.126,5.937
	c2.645,0,5.24-0.748,7.534-2.343c6.185-4.141,7.783-12.524,3.591-18.66C775.828,1315.506,767.446,1313.859,761.309,1318.052z"/>
<path style="fill:#683C11;" d="M1325.718,1302.286c-5.888-4.541-14.319-3.443-18.858,2.395c-4.541,5.888-3.493,14.367,2.395,18.908
	c2.443,1.895,5.337,2.794,8.231,2.794c4.041,0,7.983-1.795,10.626-5.237C1332.653,1315.306,1331.606,1306.826,1325.718,1302.286z"/>
<path style="fill:#683C11;" d="M1372.814,1335.214c-6.285-3.942-14.567-2.047-18.509,4.241c-3.942,6.285-2.047,14.616,4.241,18.558
	c2.246,1.398,4.689,2.047,7.135,2.047c4.49,0,8.831-2.246,11.423-6.337C1381.045,1347.438,1379.15,1339.155,1372.814,1335.214z"/>
<path style="fill:#683C11;" d="M1348.867,1319.348c-6.088-4.29-14.468-2.794-18.709,3.294c-4.241,6.088-2.794,14.468,3.291,18.757
	c2.346,1.647,5.04,2.395,7.734,2.395c4.241,0,8.382-1.995,11.025-5.737C1356.451,1331.971,1354.952,1323.589,1348.867,1319.348z"/>
<path style="fill:#683C11;" d="M737.112,1333.567c-6.336,3.893-8.382,12.173-4.49,18.509c2.543,4.141,6.984,6.436,11.525,6.436
	c2.343,0,4.789-0.599,6.984-1.946c6.336-3.842,8.331-12.122,4.49-18.458C751.731,1331.72,743.448,1329.725,737.112,1333.567z"/>
<path style="fill:#683C11;" d="M928.59,1179.806c-5.686-4.741-14.219-3.993-18.957,1.695c-4.741,5.737-3.993,14.219,1.695,18.957
	c2.546,2.097,5.588,3.145,8.631,3.145c3.842,0,7.683-1.647,10.329-4.84C935.026,1193.026,934.278,1184.544,928.59,1179.806z"/>
<path style="fill:#683C11;" d="M1185.776,1157.056c-4.441-5.988-12.872-7.235-18.86-2.794c-5.936,4.441-7.184,12.821-2.794,18.809
	c2.646,3.542,6.736,5.437,10.829,5.437c2.791,0,5.586-0.848,8.031-2.643C1188.919,1171.423,1190.166,1162.993,1185.776,1157.056z"/>
<path style="fill:#683C11;" d="M946.751,1156.608c-5.888-4.592-14.319-3.545-18.908,2.343c-4.541,5.837-3.493,14.319,2.346,18.86
	c2.443,1.944,5.386,2.843,8.28,2.843c3.993,0,7.934-1.747,10.628-5.14h-0.051C953.635,1169.628,952.588,1161.197,946.751,1156.608z"
	/>
<path style="fill:#683C11;" d="M1241.004,1224.057c-5.038-5.486-13.52-5.837-19.009-0.797c-5.437,5.038-5.788,13.569-0.799,19.009
	c2.694,2.894,6.287,4.339,9.929,4.339c3.242,0,6.536-1.148,9.079-3.542C1245.693,1238.027,1246.044,1229.545,1241.004,1224.057z"/>
<path style="fill:#683C11;" d="M1221.847,1202.405c-4.841-5.637-13.321-6.337-18.96-1.496c-5.686,4.838-6.337,13.32-1.496,18.957
	c2.643,3.142,6.385,4.741,10.227,4.741c3.094,0,6.187-1.048,8.731-3.242C1225.988,1216.524,1226.636,1208.042,1221.847,1202.405z"/>
<path style="fill:#683C11;" d="M909.681,1202.405c-5.537-4.989-14.019-4.49-18.957,1.047h-0.051
	c-4.938,5.54-4.439,14.02,1.099,19.009c2.546,2.295,5.737,3.394,8.93,3.394c3.691,0,7.384-1.498,10.027-4.49
	C915.718,1215.825,915.221,1207.345,909.681,1202.405z"/>
<path style="fill:#683C11;" d="M850.563,1245.163c-5.34,5.186-5.488,13.668-0.299,19.006c2.643,2.745,6.136,4.141,9.678,4.141
	c3.342,0,6.736-1.247,9.33-3.79c5.338-5.14,5.486-13.672,0.349-19.009C864.432,1240.174,855.949,1240.023,850.563,1245.163z"/>
<path style="fill:#683C11;" d="M807.458,1283.577c-5.737,4.689-6.587,13.172-1.895,18.909c2.695,3.242,6.534,4.941,10.427,4.941
	c2.994,0,6.036-0.999,8.531-3.045c5.737-4.689,6.585-13.169,1.895-18.908C821.677,1279.686,813.194,1278.839,807.458,1283.577z"/>
<path style="fill:#683C11;" d="M784.756,1301.338c-5.937,4.441-7.184,12.872-2.692,18.809c2.592,3.542,6.684,5.437,10.774,5.437
	c2.794,0,5.588-0.897,8.032-2.694c5.939-4.439,7.186-12.87,2.745-18.809C799.126,1298.095,790.695,1296.897,784.756,1301.338z"/>
<path style="fill:#683C11;" d="M829.409,1264.819c-5.537,4.938-6.037,13.469-1.099,19.009c2.646,2.991,6.336,4.49,10.029,4.49
	c3.194,0,6.385-1.147,8.979-3.393c5.54-4.938,6.037-13.471,1.099-19.009C843.429,1260.378,834.946,1259.879,829.409,1264.819z"/>
<path style="fill:#683C11;" d="M1203.438,1180.054c-4.641-5.837-13.123-6.785-18.908-2.195c-5.837,4.641-6.787,13.121-2.195,18.909
	c2.643,3.342,6.585,5.089,10.575,5.089c2.894,0,5.888-0.947,8.331-2.894C1207.079,1194.322,1208.027,1185.842,1203.438,1180.054z"/>
<path style="fill:#683C11;" d="M1261.011,1244.963c-5.24-5.288-13.771-5.288-19.06-0.051c-5.237,5.24-5.288,13.771-0.048,19.008
	c2.643,2.643,6.085,3.99,9.578,3.99c3.391,0,6.835-1.296,9.479-3.941C1266.198,1258.732,1266.249,1250.2,1261.011,1244.963z"/>
<path style="fill:#683C11;" d="M1304.914,1303.133c4.789-5.685,4.09-14.168-1.547-19.009h-0.049
	c-5.639-4.789-14.119-4.09-18.908,1.599c-4.84,5.637-4.141,14.119,1.547,18.957c2.495,2.146,5.586,3.193,8.679,3.193
	C1298.429,1307.874,1302.219,1306.227,1304.914,1303.133z"/>
<path style="fill:#683C11;" d="M1282.512,1284.025c5.04-5.437,4.692-13.968-0.748-19.006c-5.437-5.04-13.968-4.741-19.008,0.696
	c-5.038,5.488-4.738,13.971,0.75,19.06v-0.051c2.592,2.446,5.837,3.593,9.127,3.593
	C1276.227,1288.317,1279.869,1286.87,1282.512,1284.025z"/>
<path style="fill:#683C11;" d="M871.016,1224.707c-5.137,5.337-4.989,13.869,0.351,19.008c2.643,2.494,5.985,3.742,9.328,3.742
	c3.544,0,7.086-1.398,9.73-4.141c5.14-5.34,4.989-13.871-0.4-19.009C884.688,1219.167,876.157,1219.319,871.016,1224.707z"/>
<path style="fill:#683C11;" d="M1168.863,1133.457c-4.241-6.088-12.621-7.634-18.709-3.393c-6.136,4.241-7.632,12.623-3.442,18.709
	c2.643,3.793,6.836,5.788,11.074,5.788c2.646,0,5.34-0.748,7.684-2.395C1171.557,1147.974,1173.053,1139.543,1168.863,1133.457z"/>
<path style="fill:#683C11;" d="M980.826,1108.561c-6.136-4.19-14.468-2.643-18.66,3.493c-4.239,6.137-2.643,14.519,3.442,18.709
	c2.346,1.595,4.989,2.343,7.635,2.343c4.289,0,8.48-2.043,11.074-5.837C988.51,1121.134,986.963,1112.802,980.826,1108.561z"/>
<path style="fill:#683C11;" d="M996.79,1083.816c-6.236-4.041-14.568-2.195-18.558,4.042c-4.042,6.236-2.195,14.567,4.041,18.56
	c2.244,1.447,4.738,2.144,7.233,2.144c4.441,0,8.782-2.144,11.326-6.137C1004.873,1096.14,1003.078,1087.857,996.79,1083.816z"/>
<path style="fill:#683C11;" d="M964.164,1132.858c-5.988-4.39-14.419-3.094-18.809,2.894c-4.392,6.037-3.094,14.419,2.943,18.809
	c2.343,1.747,5.138,2.594,7.883,2.594c4.19,0,8.28-1.895,10.874-5.488C971.448,1145.679,970.149,1137.248,964.164,1132.858z"/>
<path style="fill:#683C11;" d="M1122.566,1059.618c-3.644-6.485-11.876-8.731-18.312-5.089c-6.485,3.642-8.779,11.876-5.089,18.312
	c2.446,4.39,7.036,6.833,11.725,6.833c2.246,0,4.49-0.548,6.587-1.744C1123.961,1074.288,1126.256,1066.105,1122.566,1059.618z"/>
<path style="fill:#683C11;" d="M1137.282,1084.715c-3.891-6.336-12.124-8.383-18.509-4.541c-6.336,3.842-8.383,12.124-4.541,18.461
	c2.546,4.19,6.987,6.485,11.525,6.485c2.395,0,4.789-0.6,6.984-1.947C1139.077,1099.331,1141.124,1091.051,1137.282,1084.715z"/>
<path style="fill:#683C11;" d="M1012.057,1058.571c-6.385-3.842-14.616-1.744-18.458,4.589c-3.842,6.387-1.798,14.619,4.589,18.46
	c2.146,1.347,4.541,1.946,6.884,1.946c4.589,0,9.03-2.346,11.573-6.536C1020.488,1070.695,1018.444,1062.413,1012.057,1058.571z"/>
<path style="fill:#683C11;" d="M1026.575,1032.929c-6.485-3.642-14.667-1.347-18.361,5.089c-3.641,6.485-1.347,14.716,5.14,18.358
	c2.095,1.147,4.341,1.747,6.585,1.747c4.69,0,9.279-2.495,11.725-6.884C1035.355,1044.751,1033.06,1036.571,1026.575,1032.929z"/>
<path style="fill:#683C11;" d="M1152.697,1109.36c-4.039-6.288-12.373-8.032-18.609-3.99c-6.236,4.039-8.031,12.372-3.99,18.609
	c2.594,3.942,6.884,6.136,11.325,6.136c2.495,0,5.038-0.699,7.284-2.195C1154.943,1123.928,1156.739,1115.545,1152.697,1109.36z"/>
<path style="fill:#EC6520;" d="M1060.661,1366.607c-117.906,62.438,0,204.455,0,204.455S1178.566,1429.045,1060.661,1366.607z"/>
<path style="fill:#EC6520;" d="M982.426,1613.163c0,0-44.495-177.233-163.167-117.351
	C800.245,1627.369,982.426,1613.163,982.426,1613.163z"/>
<path style="fill:#EC6520;" d="M1301.782,1495.812c-118.672-59.882-163.167,117.351-163.167,117.351
	S1320.796,1627.369,1301.782,1495.812z"/>
<ellipse transform="matrix(0.9691 -0.2466 0.2466 0.9691 -375.4577 314.0549)" style="fill:#EC6520;" cx="1066.276" cy="1656.21" rx="45.04" ry="45.04"/>
<path style="fill:#EC6520;" d="M1066.276,1793.319c13.123,0,24.344-8.138,28.893-19.642c1.397-3.534,2.166-7.385,2.166-11.415
	c0-17.153-13.905-31.058-31.059-31.058c-12.805,0-23.799,7.751-28.55,18.817c-1.613,3.756-2.507,7.894-2.507,12.242
	C1035.218,1779.414,1049.124,1793.319,1066.276,1793.319z"/>
<path style="fill:#874913;" d="M1465.668,1781.638c49.622-6.308,98.212-28.176,136.138-60.827
	c30.033-25.855,56.09-74.858,27.784-110.502c-13.542-17.052-35.668-24.357-57.29-21.788c-35.225,4.185-61.844,27.084-87.703,48.985
	c-20.671,17.507-42.348,35.213-68.369,42.74c-40.436,11.696-81.322-2.255-122.094-6.89c-8.584-0.976-17.163-1.54-25.732-1.364
	c-23.235,0.478-44.903,7.454-64.399,20.062c-9.436,6.103-18.131,13.356-25.822,21.55c-5.077,5.411-9.073,13.53-13.755,19.892
	c-0.471,0.641,0.296,1.397,0.936,0.924c19.09-14.105,42.882-22.15,66.486-20.242c9.506,0.769,18.584,3.031,27.391,6.248
	c25.628,9.363,48.952,26.838,73.751,39.291C1373.641,1780.128,1420.546,1787.374,1465.668,1781.638z"/>
<path style="fill:#874913;" d="M914.857,1714.177c23.604-1.908,47.397,6.136,66.487,20.242c0.639,0.473,1.408-0.283,0.935-0.924
	c-3.358-4.563-6.363-10.03-9.668-14.753c-1.303-1.862-2.652-3.609-4.088-5.139c-7.69-8.194-16.385-15.448-25.821-21.55
	c-19.496-12.608-41.164-19.584-64.4-20.062c-49.268-1.012-98.876,22.413-147.826,8.254c-26.021-7.526-47.698-25.233-68.368-42.74
	c-25.86-21.901-52.479-44.8-87.703-48.985c-21.624-2.569-43.749,4.736-57.29,21.788c-28.306,35.644-2.249,84.647,27.784,110.502
	c37.926,32.651,86.514,54.52,136.136,60.827c16.857,2.143,33.965,2.473,50.9,0.982c28.397-2.499,56.315-10.118,81.778-22.905
	C847.036,1742.984,877.693,1717.182,914.857,1714.177z"/>
</svg>
